<?xml version="1.0" encoding="utf-8"?>
<!-- Generator: Adobe Illustrator 21.1.0, SVG Export Plug-In . SVG Version: 6.00 Build 0)  -->
<svg version="1.1" id="Layer_1" xmlns="http://www.w3.org/2000/svg" xmlns:xlink="http://www.w3.org/1999/xlink" x="0px" y="0px"
	 viewBox="0 0 148 48" style="enable-background:new 0 0 148 48;" xml:space="preserve">
<style type="text/css">
	.st0{fill:#0094D9;}
	.st1{fill:#FFCC02;}
</style>
<g>
	<path class="st0" d="M85.8,33.3c-1.4-0.5-2.8-0.8-4.3-0.8c-1.6,0-2.8,0.1-3.6,0.4c-0.8,0.2-2.1,0.7-3.8,1.3c-1.7,0.6-3.1,0.9-4,0.9
		c-0.8,0-1.5-0.3-1.9-0.8c-0.4-0.5-0.6-1-0.6-1.5c0-1.2,0.7-2.1,2-2.8c1.4-0.7,2.9-1.2,4.6-1.5c1.7-0.3,3.2-0.4,4.4-0.4
		c5.2,0,10,1.5,11.1,2.2V18.4v-0.3v-3.9H39.5l-1.6,4.2h19.9v6.1c-0.9-0.2-2.1-0.5-3.8-0.9c-1.7-0.3-3-0.5-4.1-0.5
		c-1.6,0-3.4,0.2-5.2,0.7c-1.8,0.5-3.4,1.2-4.8,2.3c-1.3,1.1-2,2.5-2,4.3c0,1.6,0.5,3.1,1.4,4.5c0.9,1.4,2.1,2.4,3.5,3.2
		c1.4,0.8,2.8,1.1,4.1,1.1c0.5,0,1.9-0.3,4.3-0.9c2.3-0.6,3.9-1,4.7-1.2c0.8-0.2,1.6-0.3,2.3-0.3c0.5,0,1.1,0.1,1.6,0.2
		c0.5,0.1,1,0.4,1.3,0.7c0.4,0.3,0.6,0.8,0.6,1.3c0,1-0.6,1.8-1.9,2.5c-1.3,0.7-2.7,1.2-4.4,1.5c-1.6,0.3-3,0.5-4,0.5
		c-1.4,0-2.5-0.1-3.3-0.4c-0.8-0.3-1.7-0.7-2.5-1.3c-0.8-0.6-1.5-1-2.1-1.2c-0.6-0.3-1.3-0.4-2.2-0.4c-0.8,0-1.4,0.2-2,0.6
		c-0.6,0.4-0.9,1-0.9,1.9c0,1.3,0.5,2.5,1.8,3.1c6.4,2.8,12.2,1.8,12.2,1.8c1.5-0.1,3-0.5,4.6-1.2c1.6-0.7,3-1.7,4.1-3
		c1.1-1.3,1.7-2.7,1.7-4.3c0-1.3-0.4-2.5-1.2-3.5c-0.8-1-1.9-1.8-3.2-2.3c-1.4-0.5-2.8-0.8-4.3-0.8c-1.6,0-2.8,0.1-3.6,0.4
		c-0.8,0.2-2.1,0.7-3.8,1.3c-1.7,0.6-3.1,0.9-4,0.9c-0.8,0-1.5-0.3-1.9-0.8c-0.4-0.5-0.6-1-0.6-1.5c0-1.2,0.7-2.1,2-2.8
		c1.3-0.7,2.9-1.2,4.6-1.5c1.7-0.3,3.2-0.4,4.4-0.4c5.2,0,10,1.5,11.1,2.2V18.4h22.6v6.1c-0.9-0.2-2.1-0.5-3.8-0.9
		c-1.7-0.3-3-0.5-4.1-0.5c-1.6,0-3.4,0.2-5.2,0.7c-1.8,0.5-3.4,1.2-4.8,2.3c-1.3,1.1-2,2.5-2,4.3c0,1.6,0.5,3.1,1.4,4.5
		c0.9,1.4,2.1,2.4,3.5,3.2c1.4,0.8,2.8,1.1,4.1,1.1c0.5,0,1.9-0.3,4.3-0.9c2.3-0.6,3.9-1,4.7-1.2c0.8-0.2,1.6-0.3,2.3-0.3
		c0.5,0,1.1,0.1,1.6,0.2c0.5,0.1,1,0.4,1.3,0.7C88.8,38,89,38.4,89,39c0,1-0.6,1.8-1.9,2.5c-1.3,0.7-2.7,1.2-4.4,1.5
		c-1.6,0.3-3,0.5-4,0.5c-1.4,0-2.5-0.1-3.3-0.4c-0.8-0.3-1.7-0.7-2.5-1.3c-0.8-0.6-1.5-1-2.1-1.2c-0.6-0.3-1.3-0.4-2.2-0.4
		c-0.8,0-1.4,0.2-2,0.6c-0.6,0.4-0.9,1-0.9,1.9c0,1.3,0.5,2.5,1.8,3.1c6.5,2.8,12.2,1.8,12.2,1.8c1.5-0.1,3-0.5,4.6-1.2
		c1.6-0.7,3-1.7,4.1-3c1.1-1.3,1.7-2.7,1.7-4.3c0-1.3-0.4-2.5-1.2-3.5C88.2,34.6,87.1,33.9,85.8,33.3z"/>
	<path class="st0" d="M146,18.4v-4.3h-15.1V4.8l-5.4-3.7v13h-5.4l-2.4,4.3h7.9v22.3c0,1.1,0.9,7,7.5,7c7.5,0,9.7-5.4,10.6-7.5
		l-6-3.4c0,6.1-1.3,8.9-4.2,8.9c-2.1,0-2.6-3.9-2.6-4.6V18.4H146z"/>
	<path class="st0" d="M113.8,24.6c-1.9-1.3-4-2-6.5-2c-1.3,0-2.4,0.2-3.5,0.6c-1,0.4-1.9,0.8-2.6,1.3c-0.7,0.5-1.3,1.1-1.9,1.6
		c-0.6,0.6-1,1.1-1.5,1.6v-9.3h15.7l2.5-4.2l-18.3,0V4.7L93,1.2l0,43.4l4.6,2.9V35.8c0-1.5,0.6-3.1,1.9-4.8c1.2-1.6,2.8-3,4.6-4.1
		c1.8-1.1,3.6-1.7,5.2-1.7c1.7,0,3.1,0.6,4.1,1.9c1,1.3,1.5,3,1.5,5c0,1.7-0.3,3.2-0.8,4.6c-0.5,1.4-1.2,2.5-1.8,3.4
		c-0.7,0.9-1.5,1.8-2.4,2.7c-0.9,0.9-1.5,1.6-1.8,2l4.9,2.9c0.5-0.4,1.3-1.1,2.3-2c1-1,2-2.4,3-4.1c1-1.8,1.5-3.7,1.5-5.8
		c0-2-0.5-4-1.6-6.1C117.1,27.6,115.6,25.9,113.8,24.6z"/>
	<g>
		<circle class="st1" cx="30" cy="15.8" r="5.9"/>
		<rect x="27.5" y="24.6" class="st0" width="5" height="23"/>
	</g>
	<polygon class="st0" points="22.4,14 15.8,14 5.2,24.1 5.2,6.9 0.7,0.7 0.7,47.6 5.2,47.6 5.2,34.3 5.2,31.4 22.3,47.5 22.3,40.4 
		11.6,30.4 5.2,30.4 5.2,30.2 	"/>
</g>
</svg>
